<?xml version="1.0" encoding="UTF-8"?>
<svg id="_레이어_1" data-name="레이어 1" xmlns="http://www.w3.org/2000/svg" viewBox="0 0 563 649.67">
  <g>
    <path d="m281.5,12C132.66,12,12,121.47,12,256.5c0,90,53.61,168.63,133.43,211.07l-16.43,152.43,134.07-119.58c6.09.37,12.23.58,18.43.58,148.84,0,269.5-109.47,269.5-244.5S430.34,12,281.5,12Z" style="fill: #ffd62e; stroke: #112948; stroke-linecap: round; stroke-linejoin: round; stroke-width: 24px;"/>
    <path d="m232.59,94.11h98s18.44-13.56,18.44-21.11c0-.25.67-3.1-3.11-4.67-7.1-2.93-19.82-4.68-32.44-8.44-14.84-4.42-29.47-10.67-33.61-10.67-4.67,0-16.81,5.74-30.17,10-10.5,3.35-22.05,4.92-29.33,8-6.24,2.64-6.44,3.11-6.44,9.78s18.67,17.11,18.67,17.11Z" style="fill: #112948;"/>
    <path d="m239.8,105h84s2.74,6.3-.15,11.53c-2.89,5.22-28.96,18.92-41.18,18.92s-41.11-11.11-43.56-17.33c-2.44-6.22.89-13.11.89-13.11Z" style="fill: #112948;"/>
    <ellipse cx="281.5" cy="75" rx="11.89" ry="11.11" style="fill: #fff;"/>
    <polygon points="235.61 94.11 239.56 105 323.56 105 327.39 94.11 235.61 94.11" style="fill: #fff;"/>
    <path d="m496.22,498.56c0-53.26-46.56-96.44-104-96.44s-104,43.18-104,96.44c0,29.83,14.61,56.5,37.55,74.19v64.92l66.67-42.67h0c57.34-.11,103.78-43.25,103.78-96.44Z" style="fill: #26b4ff; stroke: #112948; stroke-linecap: round; stroke-linejoin: round; stroke-width: 24px;"/>
    <g>
      <circle cx="347.56" cy="498.56" r="12.67" style="fill: #fff;"/>
      <circle cx="392.22" cy="498.56" r="12.67" style="fill: #fff;"/>
      <circle cx="436.89" cy="498.56" r="12.67" style="fill: #fff;"/>
    </g>
  </g>
  <g>
    <path d="m154.51,270.66c-1.22.61-2.75,1.23-4.61,1.87-1.86.64-3.9,1.23-6.13,1.77-2.23.54-4.59.98-7.09,1.32-2.5.34-4.96.51-7.39.51-30.31,0-45.47-15.56-45.47-46.68,0-8.98,1.2-16.49,3.59-22.53,2.4-6.04,5.69-10.87,9.87-14.48,4.19-3.61,9.08-6.18,14.68-7.7,5.6-1.52,11.61-2.28,18.03-2.28,2.43,0,4.81.17,7.14.51,2.33.34,4.52.79,6.58,1.37,2.06.57,3.95,1.22,5.67,1.92s3.19,1.4,4.41,2.08v23.6c-1.35-.61-3-1.2-4.96-1.77-1.96-.57-4-1.06-6.13-1.47-2.13-.41-4.25-.74-6.38-1.01-2.13-.27-4-.41-5.62-.41-2.84,0-5.5.32-8,.96-2.5.64-4.68,1.79-6.53,3.44-1.86,1.66-3.31,3.92-4.35,6.79-1.05,2.87-1.57,6.53-1.57,10.99,0,4.05.47,7.46,1.42,10.23.94,2.77,2.33,5,4.15,6.68,1.82,1.69,4.07,2.9,6.73,3.65,2.67.74,5.72,1.11,9.17,1.11,1.42,0,3.14-.1,5.16-.3s4.08-.51,6.18-.91c2.09-.41,4.15-.88,6.18-1.42,2.03-.54,3.75-1.11,5.16-1.72l.1,23.9Z" style="fill: #112948;"/>
    <path d="m203.93,183.77c5.33,0,10.33.51,14.99,1.52s8.69,2.77,12.1,5.27c3.41,2.5,6.09,5.89,8.05,10.18,1.96,4.29,2.94,9.71,2.94,16.25s-1,12.3-2.99,16.86c-1.99,4.56-5.11,8.12-9.37,10.68l16.41,30.38h-32.2l-12.25-24.91h-4.96v24.91h-27.24v-91.14h34.53Zm-7.29,24.71v16.61h4.86c4.79,0,8.24-.54,10.33-1.62,2.09-1.08,3.14-3.27,3.14-6.58,0-1.96-.32-3.49-.96-4.61-.64-1.11-1.55-1.96-2.73-2.53-1.18-.57-2.6-.93-4.25-1.06-1.66-.13-3.49-.2-5.52-.2h-4.86Z" style="fill: #112948;"/>
    <path d="m285.15,183.77v91.14h-27.14v-91.14h27.14Z" style="fill: #112948;"/>
    <path d="m338.72,273.6l-12.05-38.99-.81,40.3h-26.03l4.76-91.14h30.99l14.18,44.46,14.38-44.46h30.99l4.76,91.14h-26.03l-.81-40.3-12.05,38.99h-22.28Z" style="fill: #112948;"/>
    <path d="m476.13,241.6h-35.65v8.51h38.68v24.81h-65.92v-91.14h64.2v24.81h-36.96v8.3h35.65v24.71Z" style="fill: #112948;"/>
    <path d="m238.41,350.87c0,7.56-1.05,14.26-3.14,20.1-2.09,5.84-5.08,10.73-8.96,14.68-3.88,3.95-8.54,6.95-13.97,9.01-5.44,2.06-11.49,3.09-18.18,3.09s-12.74-1.03-18.18-3.09c-5.44-2.06-10.09-5.06-13.97-9.01-3.88-3.95-6.87-8.84-8.96-14.68-2.09-5.84-3.14-12.54-3.14-20.1s1.05-14.26,3.14-20.1c2.09-5.84,5.08-10.73,8.96-14.68,3.88-3.95,8.54-6.95,13.97-9.01,5.43-2.06,11.49-3.09,18.18-3.09s12.74,1.03,18.18,3.09c5.43,2.06,10.09,5.06,13.97,9.01,3.88,3.95,6.87,8.84,8.96,14.68,2.09,5.84,3.14,12.54,3.14,20.1Zm-44.25-22.58c-5.13,0-9.15,1.81-12.05,5.42-2.9,3.61-4.35,9.2-4.35,16.76s1.45,13.18,4.35,16.66c2.9,3.48,6.79,5.22,11.65,5.22,5.27,0,9.38-1.74,12.35-5.22,2.97-3.48,4.46-9.03,4.46-16.66s-1.45-13.15-4.35-16.76c-2.9-3.61-6.92-5.42-12.05-5.42Z" style="fill: #112948;"/>
    <path d="m292.08,397.75c-6.14,0-11.58-.74-16.3-2.23-4.73-1.49-8.69-3.81-11.9-6.99-3.21-3.17-5.64-7.22-7.29-12.15-1.65-4.93-2.48-10.87-2.48-17.82v-53.27h27.24v53.67c0,4.93.91,8.56,2.73,10.89s4.39,3.49,7.7,3.49,6.08-1.17,7.9-3.49c1.82-2.33,2.73-5.96,2.73-10.89v-53.67h27.24v53.27c0,6.95-.81,12.9-2.43,17.82-1.62,4.93-4.02,8.98-7.19,12.15-3.17,3.17-7.09,5.5-11.75,6.99-4.66,1.48-10.06,2.23-16.2,2.23Z" style="fill: #112948;"/>
    <path d="m364.39,330.41h-22.08v-25.11h71.7v25.11h-22.38v66.03h-27.24v-66.03Z" style="fill: #112948;"/>
  </g>
</svg>